<?xml version="1.0" standalone="no"?>
<svg xmlns="http://www.w3.org/2000/svg" version="1.1" width="252" height="252">
	<!-- Created with https://api.qrserver.com (QR Code API, see goQR.me/api for information) -->
	<title>QR Code</title>
	<desc>BEGIN:VCARD
VERSION:2.1
N:Altenburger;Donate;;Mrs
FN:Donate Altenburger
TITLE:Public Relations Manager
TEL;CELL;PREF:+49 176 23562225
EMAIL:mail@altenburger-pr.de
URL:http://altenburger-pr.de
END:VCARD</desc>
	<rect style="fill:rgb(255, 255, 255);fill-opacity:1" x="0" y="0" width="252" height="252" />
	<g id="elements">
		<path style="fill:rgb(172, 255, 48)" d="M 20,20 l 4,0 0,4 -4,0 z M 24,20 l 4,0 0,4 -4,0 z M 28,20 l 4,0 0,4 -4,0 z M 32,20 l 4,0 0,4 -4,0 z M 36,20 l 4,0 0,4 -4,0 z M 40,20 l 4,0 0,4 -4,0 z M 44,20 l 4,0 0,4 -4,0 z M 56,20 l 4,0 0,4 -4,0 z M 60,20 l 4,0 0,4 -4,0 z M 84,20 l 4,0 0,4 -4,0 z M 88,20 l 4,0 0,4 -4,0 z M 92,20 l 4,0 0,4 -4,0 z M 104,20 l 4,0 0,4 -4,0 z M 112,20 l 4,0 0,4 -4,0 z M 120,20 l 4,0 0,4 -4,0 z M 128,20 l 4,0 0,4 -4,0 z M 136,20 l 4,0 0,4 -4,0 z M 140,20 l 4,0 0,4 -4,0 z M 144,20 l 4,0 0,4 -4,0 z M 168,20 l 4,0 0,4 -4,0 z M 180,20 l 4,0 0,4 -4,0 z M 184,20 l 4,0 0,4 -4,0 z M 188,20 l 4,0 0,4 -4,0 z M 204,20 l 4,0 0,4 -4,0 z M 208,20 l 4,0 0,4 -4,0 z M 212,20 l 4,0 0,4 -4,0 z M 216,20 l 4,0 0,4 -4,0 z M 220,20 l 4,0 0,4 -4,0 z M 224,20 l 4,0 0,4 -4,0 z M 228,20 l 4,0 0,4 -4,0 z M 20,24 l 4,0 0,4 -4,0 z M 44,24 l 4,0 0,4 -4,0 z M 52,24 l 4,0 0,4 -4,0 z M 60,24 l 4,0 0,4 -4,0 z M 76,24 l 4,0 0,4 -4,0 z M 80,24 l 4,0 0,4 -4,0 z M 84,24 l 4,0 0,4 -4,0 z M 92,24 l 4,0 0,4 -4,0 z M 96,24 l 4,0 0,4 -4,0 z M 104,24 l 4,0 0,4 -4,0 z M 144,24 l 4,0 0,4 -4,0 z M 152,24 l 4,0 0,4 -4,0 z M 160,24 l 4,0 0,4 -4,0 z M 164,24 l 4,0 0,4 -4,0 z M 176,24 l 4,0 0,4 -4,0 z M 180,24 l 4,0 0,4 -4,0 z M 188,24 l 4,0 0,4 -4,0 z M 192,24 l 4,0 0,4 -4,0 z M 204,24 l 4,0 0,4 -4,0 z M 228,24 l 4,0 0,4 -4,0 z M 20,28 l 4,0 0,4 -4,0 z M 28,28 l 4,0 0,4 -4,0 z M 32,28 l 4,0 0,4 -4,0 z M 36,28 l 4,0 0,4 -4,0 z M 44,28 l 4,0 0,4 -4,0 z M 56,28 l 4,0 0,4 -4,0 z M 60,28 l 4,0 0,4 -4,0 z M 72,28 l 4,0 0,4 -4,0 z M 76,28 l 4,0 0,4 -4,0 z M 84,28 l 4,0 0,4 -4,0 z M 88,28 l 4,0 0,4 -4,0 z M 92,28 l 4,0 0,4 -4,0 z M 104,28 l 4,0 0,4 -4,0 z M 108,28 l 4,0 0,4 -4,0 z M 112,28 l 4,0 0,4 -4,0 z M 124,28 l 4,0 0,4 -4,0 z M 128,28 l 4,0 0,4 -4,0 z M 136,28 l 4,0 0,4 -4,0 z M 140,28 l 4,0 0,4 -4,0 z M 148,28 l 4,0 0,4 -4,0 z M 164,28 l 4,0 0,4 -4,0 z M 176,28 l 4,0 0,4 -4,0 z M 180,28 l 4,0 0,4 -4,0 z M 184,28 l 4,0 0,4 -4,0 z M 192,28 l 4,0 0,4 -4,0 z M 204,28 l 4,0 0,4 -4,0 z M 212,28 l 4,0 0,4 -4,0 z M 216,28 l 4,0 0,4 -4,0 z M 220,28 l 4,0 0,4 -4,0 z M 228,28 l 4,0 0,4 -4,0 z M 20,32 l 4,0 0,4 -4,0 z M 28,32 l 4,0 0,4 -4,0 z M 32,32 l 4,0 0,4 -4,0 z M 36,32 l 4,0 0,4 -4,0 z M 44,32 l 4,0 0,4 -4,0 z M 52,32 l 4,0 0,4 -4,0 z M 56,32 l 4,0 0,4 -4,0 z M 68,32 l 4,0 0,4 -4,0 z M 84,32 l 4,0 0,4 -4,0 z M 88,32 l 4,0 0,4 -4,0 z M 92,32 l 4,0 0,4 -4,0 z M 100,32 l 4,0 0,4 -4,0 z M 112,32 l 4,0 0,4 -4,0 z M 116,32 l 4,0 0,4 -4,0 z M 124,32 l 4,0 0,4 -4,0 z M 156,32 l 4,0 0,4 -4,0 z M 160,32 l 4,0 0,4 -4,0 z M 164,32 l 4,0 0,4 -4,0 z M 172,32 l 4,0 0,4 -4,0 z M 176,32 l 4,0 0,4 -4,0 z M 184,32 l 4,0 0,4 -4,0 z M 188,32 l 4,0 0,4 -4,0 z M 196,32 l 4,0 0,4 -4,0 z M 204,32 l 4,0 0,4 -4,0 z M 212,32 l 4,0 0,4 -4,0 z M 216,32 l 4,0 0,4 -4,0 z M 220,32 l 4,0 0,4 -4,0 z M 228,32 l 4,0 0,4 -4,0 z M 20,36 l 4,0 0,4 -4,0 z M 28,36 l 4,0 0,4 -4,0 z M 32,36 l 4,0 0,4 -4,0 z M 36,36 l 4,0 0,4 -4,0 z M 44,36 l 4,0 0,4 -4,0 z M 68,36 l 4,0 0,4 -4,0 z M 76,36 l 4,0 0,4 -4,0 z M 80,36 l 4,0 0,4 -4,0 z M 96,36 l 4,0 0,4 -4,0 z M 104,36 l 4,0 0,4 -4,0 z M 108,36 l 4,0 0,4 -4,0 z M 112,36 l 4,0 0,4 -4,0 z M 116,36 l 4,0 0,4 -4,0 z M 120,36 l 4,0 0,4 -4,0 z M 124,36 l 4,0 0,4 -4,0 z M 128,36 l 4,0 0,4 -4,0 z M 132,36 l 4,0 0,4 -4,0 z M 136,36 l 4,0 0,4 -4,0 z M 140,36 l 4,0 0,4 -4,0 z M 144,36 l 4,0 0,4 -4,0 z M 148,36 l 4,0 0,4 -4,0 z M 160,36 l 4,0 0,4 -4,0 z M 168,36 l 4,0 0,4 -4,0 z M 172,36 l 4,0 0,4 -4,0 z M 180,36 l 4,0 0,4 -4,0 z M 188,36 l 4,0 0,4 -4,0 z M 204,36 l 4,0 0,4 -4,0 z M 212,36 l 4,0 0,4 -4,0 z M 216,36 l 4,0 0,4 -4,0 z M 220,36 l 4,0 0,4 -4,0 z M 228,36 l 4,0 0,4 -4,0 z M 20,40 l 4,0 0,4 -4,0 z M 44,40 l 4,0 0,4 -4,0 z M 52,40 l 4,0 0,4 -4,0 z M 64,40 l 4,0 0,4 -4,0 z M 80,40 l 4,0 0,4 -4,0 z M 88,40 l 4,0 0,4 -4,0 z M 100,40 l 4,0 0,4 -4,0 z M 104,40 l 4,0 0,4 -4,0 z M 116,40 l 4,0 0,4 -4,0 z M 132,40 l 4,0 0,4 -4,0 z M 136,40 l 4,0 0,4 -4,0 z M 144,40 l 4,0 0,4 -4,0 z M 152,40 l 4,0 0,4 -4,0 z M 160,40 l 4,0 0,4 -4,0 z M 164,40 l 4,0 0,4 -4,0 z M 168,40 l 4,0 0,4 -4,0 z M 188,40 l 4,0 0,4 -4,0 z M 204,40 l 4,0 0,4 -4,0 z M 228,40 l 4,0 0,4 -4,0 z M 20,44 l 4,0 0,4 -4,0 z M 24,44 l 4,0 0,4 -4,0 z M 28,44 l 4,0 0,4 -4,0 z M 32,44 l 4,0 0,4 -4,0 z M 36,44 l 4,0 0,4 -4,0 z M 40,44 l 4,0 0,4 -4,0 z M 44,44 l 4,0 0,4 -4,0 z M 52,44 l 4,0 0,4 -4,0 z M 60,44 l 4,0 0,4 -4,0 z M 68,44 l 4,0 0,4 -4,0 z M 76,44 l 4,0 0,4 -4,0 z M 84,44 l 4,0 0,4 -4,0 z M 92,44 l 4,0 0,4 -4,0 z M 100,44 l 4,0 0,4 -4,0 z M 108,44 l 4,0 0,4 -4,0 z M 116,44 l 4,0 0,4 -4,0 z M 124,44 l 4,0 0,4 -4,0 z M 132,44 l 4,0 0,4 -4,0 z M 140,44 l 4,0 0,4 -4,0 z M 148,44 l 4,0 0,4 -4,0 z M 156,44 l 4,0 0,4 -4,0 z M 164,44 l 4,0 0,4 -4,0 z M 172,44 l 4,0 0,4 -4,0 z M 180,44 l 4,0 0,4 -4,0 z M 188,44 l 4,0 0,4 -4,0 z M 196,44 l 4,0 0,4 -4,0 z M 204,44 l 4,0 0,4 -4,0 z M 208,44 l 4,0 0,4 -4,0 z M 212,44 l 4,0 0,4 -4,0 z M 216,44 l 4,0 0,4 -4,0 z M 220,44 l 4,0 0,4 -4,0 z M 224,44 l 4,0 0,4 -4,0 z M 228,44 l 4,0 0,4 -4,0 z M 56,48 l 4,0 0,4 -4,0 z M 60,48 l 4,0 0,4 -4,0 z M 64,48 l 4,0 0,4 -4,0 z M 68,48 l 4,0 0,4 -4,0 z M 72,48 l 4,0 0,4 -4,0 z M 84,48 l 4,0 0,4 -4,0 z M 96,48 l 4,0 0,4 -4,0 z M 100,48 l 4,0 0,4 -4,0 z M 116,48 l 4,0 0,4 -4,0 z M 132,48 l 4,0 0,4 -4,0 z M 136,48 l 4,0 0,4 -4,0 z M 148,48 l 4,0 0,4 -4,0 z M 156,48 l 4,0 0,4 -4,0 z M 164,48 l 4,0 0,4 -4,0 z M 168,48 l 4,0 0,4 -4,0 z M 180,48 l 4,0 0,4 -4,0 z M 192,48 l 4,0 0,4 -4,0 z M 20,52 l 4,0 0,4 -4,0 z M 24,52 l 4,0 0,4 -4,0 z M 28,52 l 4,0 0,4 -4,0 z M 32,52 l 4,0 0,4 -4,0 z M 36,52 l 4,0 0,4 -4,0 z M 44,52 l 4,0 0,4 -4,0 z M 48,52 l 4,0 0,4 -4,0 z M 52,52 l 4,0 0,4 -4,0 z M 56,52 l 4,0 0,4 -4,0 z M 60,52 l 4,0 0,4 -4,0 z M 64,52 l 4,0 0,4 -4,0 z M 88,52 l 4,0 0,4 -4,0 z M 104,52 l 4,0 0,4 -4,0 z M 116,52 l 4,0 0,4 -4,0 z M 120,52 l 4,0 0,4 -4,0 z M 124,52 l 4,0 0,4 -4,0 z M 128,52 l 4,0 0,4 -4,0 z M 132,52 l 4,0 0,4 -4,0 z M 144,52 l 4,0 0,4 -4,0 z M 152,52 l 4,0 0,4 -4,0 z M 156,52 l 4,0 0,4 -4,0 z M 160,52 l 4,0 0,4 -4,0 z M 164,52 l 4,0 0,4 -4,0 z M 176,52 l 4,0 0,4 -4,0 z M 192,52 l 4,0 0,4 -4,0 z M 196,52 l 4,0 0,4 -4,0 z M 200,52 l 4,0 0,4 -4,0 z M 208,52 l 4,0 0,4 -4,0 z M 216,52 l 4,0 0,4 -4,0 z M 224,52 l 4,0 0,4 -4,0 z M 20,56 l 4,0 0,4 -4,0 z M 24,56 l 4,0 0,4 -4,0 z M 32,56 l 4,0 0,4 -4,0 z M 48,56 l 4,0 0,4 -4,0 z M 52,56 l 4,0 0,4 -4,0 z M 64,56 l 4,0 0,4 -4,0 z M 68,56 l 4,0 0,4 -4,0 z M 72,56 l 4,0 0,4 -4,0 z M 80,56 l 4,0 0,4 -4,0 z M 92,56 l 4,0 0,4 -4,0 z M 96,56 l 4,0 0,4 -4,0 z M 100,56 l 4,0 0,4 -4,0 z M 116,56 l 4,0 0,4 -4,0 z M 120,56 l 4,0 0,4 -4,0 z M 124,56 l 4,0 0,4 -4,0 z M 128,56 l 4,0 0,4 -4,0 z M 136,56 l 4,0 0,4 -4,0 z M 140,56 l 4,0 0,4 -4,0 z M 152,56 l 4,0 0,4 -4,0 z M 168,56 l 4,0 0,4 -4,0 z M 176,56 l 4,0 0,4 -4,0 z M 180,56 l 4,0 0,4 -4,0 z M 184,56 l 4,0 0,4 -4,0 z M 188,56 l 4,0 0,4 -4,0 z M 204,56 l 4,0 0,4 -4,0 z M 224,56 l 4,0 0,4 -4,0 z M 228,56 l 4,0 0,4 -4,0 z M 28,60 l 4,0 0,4 -4,0 z M 44,60 l 4,0 0,4 -4,0 z M 48,60 l 4,0 0,4 -4,0 z M 56,60 l 4,0 0,4 -4,0 z M 88,60 l 4,0 0,4 -4,0 z M 92,60 l 4,0 0,4 -4,0 z M 100,60 l 4,0 0,4 -4,0 z M 112,60 l 4,0 0,4 -4,0 z M 116,60 l 4,0 0,4 -4,0 z M 128,60 l 4,0 0,4 -4,0 z M 144,60 l 4,0 0,4 -4,0 z M 156,60 l 4,0 0,4 -4,0 z M 172,60 l 4,0 0,4 -4,0 z M 176,60 l 4,0 0,4 -4,0 z M 188,60 l 4,0 0,4 -4,0 z M 196,60 l 4,0 0,4 -4,0 z M 208,60 l 4,0 0,4 -4,0 z M 212,60 l 4,0 0,4 -4,0 z M 216,60 l 4,0 0,4 -4,0 z M 220,60 l 4,0 0,4 -4,0 z M 228,60 l 4,0 0,4 -4,0 z M 20,64 l 4,0 0,4 -4,0 z M 24,64 l 4,0 0,4 -4,0 z M 28,64 l 4,0 0,4 -4,0 z M 32,64 l 4,0 0,4 -4,0 z M 48,64 l 4,0 0,4 -4,0 z M 52,64 l 4,0 0,4 -4,0 z M 56,64 l 4,0 0,4 -4,0 z M 60,64 l 4,0 0,4 -4,0 z M 80,64 l 4,0 0,4 -4,0 z M 88,64 l 4,0 0,4 -4,0 z M 96,64 l 4,0 0,4 -4,0 z M 100,64 l 4,0 0,4 -4,0 z M 116,64 l 4,0 0,4 -4,0 z M 120,64 l 4,0 0,4 -4,0 z M 128,64 l 4,0 0,4 -4,0 z M 132,64 l 4,0 0,4 -4,0 z M 136,64 l 4,0 0,4 -4,0 z M 140,64 l 4,0 0,4 -4,0 z M 144,64 l 4,0 0,4 -4,0 z M 164,64 l 4,0 0,4 -4,0 z M 168,64 l 4,0 0,4 -4,0 z M 184,64 l 4,0 0,4 -4,0 z M 188,64 l 4,0 0,4 -4,0 z M 192,64 l 4,0 0,4 -4,0 z M 196,64 l 4,0 0,4 -4,0 z M 204,64 l 4,0 0,4 -4,0 z M 212,64 l 4,0 0,4 -4,0 z M 24,68 l 4,0 0,4 -4,0 z M 44,68 l 4,0 0,4 -4,0 z M 48,68 l 4,0 0,4 -4,0 z M 60,68 l 4,0 0,4 -4,0 z M 64,68 l 4,0 0,4 -4,0 z M 68,68 l 4,0 0,4 -4,0 z M 72,68 l 4,0 0,4 -4,0 z M 80,68 l 4,0 0,4 -4,0 z M 88,68 l 4,0 0,4 -4,0 z M 92,68 l 4,0 0,4 -4,0 z M 100,68 l 4,0 0,4 -4,0 z M 112,68 l 4,0 0,4 -4,0 z M 116,68 l 4,0 0,4 -4,0 z M 128,68 l 4,0 0,4 -4,0 z M 144,68 l 4,0 0,4 -4,0 z M 156,68 l 4,0 0,4 -4,0 z M 168,68 l 4,0 0,4 -4,0 z M 172,68 l 4,0 0,4 -4,0 z M 188,68 l 4,0 0,4 -4,0 z M 192,68 l 4,0 0,4 -4,0 z M 200,68 l 4,0 0,4 -4,0 z M 212,68 l 4,0 0,4 -4,0 z M 220,68 l 4,0 0,4 -4,0 z M 228,68 l 4,0 0,4 -4,0 z M 20,72 l 4,0 0,4 -4,0 z M 28,72 l 4,0 0,4 -4,0 z M 32,72 l 4,0 0,4 -4,0 z M 40,72 l 4,0 0,4 -4,0 z M 60,72 l 4,0 0,4 -4,0 z M 76,72 l 4,0 0,4 -4,0 z M 96,72 l 4,0 0,4 -4,0 z M 104,72 l 4,0 0,4 -4,0 z M 108,72 l 4,0 0,4 -4,0 z M 116,72 l 4,0 0,4 -4,0 z M 124,72 l 4,0 0,4 -4,0 z M 136,72 l 4,0 0,4 -4,0 z M 140,72 l 4,0 0,4 -4,0 z M 144,72 l 4,0 0,4 -4,0 z M 148,72 l 4,0 0,4 -4,0 z M 152,72 l 4,0 0,4 -4,0 z M 176,72 l 4,0 0,4 -4,0 z M 180,72 l 4,0 0,4 -4,0 z M 188,72 l 4,0 0,4 -4,0 z M 196,72 l 4,0 0,4 -4,0 z M 200,72 l 4,0 0,4 -4,0 z M 204,72 l 4,0 0,4 -4,0 z M 212,72 l 4,0 0,4 -4,0 z M 220,72 l 4,0 0,4 -4,0 z M 224,72 l 4,0 0,4 -4,0 z M 24,76 l 4,0 0,4 -4,0 z M 36,76 l 4,0 0,4 -4,0 z M 44,76 l 4,0 0,4 -4,0 z M 48,76 l 4,0 0,4 -4,0 z M 72,76 l 4,0 0,4 -4,0 z M 76,76 l 4,0 0,4 -4,0 z M 80,76 l 4,0 0,4 -4,0 z M 92,76 l 4,0 0,4 -4,0 z M 96,76 l 4,0 0,4 -4,0 z M 108,76 l 4,0 0,4 -4,0 z M 136,76 l 4,0 0,4 -4,0 z M 140,76 l 4,0 0,4 -4,0 z M 144,76 l 4,0 0,4 -4,0 z M 152,76 l 4,0 0,4 -4,0 z M 160,76 l 4,0 0,4 -4,0 z M 164,76 l 4,0 0,4 -4,0 z M 188,76 l 4,0 0,4 -4,0 z M 196,76 l 4,0 0,4 -4,0 z M 200,76 l 4,0 0,4 -4,0 z M 204,76 l 4,0 0,4 -4,0 z M 216,76 l 4,0 0,4 -4,0 z M 220,76 l 4,0 0,4 -4,0 z M 224,76 l 4,0 0,4 -4,0 z M 228,76 l 4,0 0,4 -4,0 z M 20,80 l 4,0 0,4 -4,0 z M 28,80 l 4,0 0,4 -4,0 z M 32,80 l 4,0 0,4 -4,0 z M 48,80 l 4,0 0,4 -4,0 z M 56,80 l 4,0 0,4 -4,0 z M 60,80 l 4,0 0,4 -4,0 z M 76,80 l 4,0 0,4 -4,0 z M 84,80 l 4,0 0,4 -4,0 z M 88,80 l 4,0 0,4 -4,0 z M 92,80 l 4,0 0,4 -4,0 z M 104,80 l 4,0 0,4 -4,0 z M 108,80 l 4,0 0,4 -4,0 z M 116,80 l 4,0 0,4 -4,0 z M 120,80 l 4,0 0,4 -4,0 z M 124,80 l 4,0 0,4 -4,0 z M 140,80 l 4,0 0,4 -4,0 z M 144,80 l 4,0 0,4 -4,0 z M 148,80 l 4,0 0,4 -4,0 z M 152,80 l 4,0 0,4 -4,0 z M 156,80 l 4,0 0,4 -4,0 z M 164,80 l 4,0 0,4 -4,0 z M 168,80 l 4,0 0,4 -4,0 z M 172,80 l 4,0 0,4 -4,0 z M 180,80 l 4,0 0,4 -4,0 z M 188,80 l 4,0 0,4 -4,0 z M 192,80 l 4,0 0,4 -4,0 z M 200,80 l 4,0 0,4 -4,0 z M 204,80 l 4,0 0,4 -4,0 z M 216,80 l 4,0 0,4 -4,0 z M 220,80 l 4,0 0,4 -4,0 z M 224,80 l 4,0 0,4 -4,0 z M 228,80 l 4,0 0,4 -4,0 z M 24,84 l 4,0 0,4 -4,0 z M 32,84 l 4,0 0,4 -4,0 z M 36,84 l 4,0 0,4 -4,0 z M 40,84 l 4,0 0,4 -4,0 z M 44,84 l 4,0 0,4 -4,0 z M 60,84 l 4,0 0,4 -4,0 z M 72,84 l 4,0 0,4 -4,0 z M 76,84 l 4,0 0,4 -4,0 z M 80,84 l 4,0 0,4 -4,0 z M 92,84 l 4,0 0,4 -4,0 z M 96,84 l 4,0 0,4 -4,0 z M 108,84 l 4,0 0,4 -4,0 z M 112,84 l 4,0 0,4 -4,0 z M 120,84 l 4,0 0,4 -4,0 z M 128,84 l 4,0 0,4 -4,0 z M 132,84 l 4,0 0,4 -4,0 z M 144,84 l 4,0 0,4 -4,0 z M 152,84 l 4,0 0,4 -4,0 z M 156,84 l 4,0 0,4 -4,0 z M 164,84 l 4,0 0,4 -4,0 z M 168,84 l 4,0 0,4 -4,0 z M 172,84 l 4,0 0,4 -4,0 z M 184,84 l 4,0 0,4 -4,0 z M 188,84 l 4,0 0,4 -4,0 z M 204,84 l 4,0 0,4 -4,0 z M 208,84 l 4,0 0,4 -4,0 z M 212,84 l 4,0 0,4 -4,0 z M 216,84 l 4,0 0,4 -4,0 z M 220,84 l 4,0 0,4 -4,0 z M 224,84 l 4,0 0,4 -4,0 z M 20,88 l 4,0 0,4 -4,0 z M 28,88 l 4,0 0,4 -4,0 z M 32,88 l 4,0 0,4 -4,0 z M 36,88 l 4,0 0,4 -4,0 z M 40,88 l 4,0 0,4 -4,0 z M 68,88 l 4,0 0,4 -4,0 z M 84,88 l 4,0 0,4 -4,0 z M 88,88 l 4,0 0,4 -4,0 z M 92,88 l 4,0 0,4 -4,0 z M 104,88 l 4,0 0,4 -4,0 z M 116,88 l 4,0 0,4 -4,0 z M 120,88 l 4,0 0,4 -4,0 z M 128,88 l 4,0 0,4 -4,0 z M 132,88 l 4,0 0,4 -4,0 z M 136,88 l 4,0 0,4 -4,0 z M 140,88 l 4,0 0,4 -4,0 z M 160,88 l 4,0 0,4 -4,0 z M 168,88 l 4,0 0,4 -4,0 z M 184,88 l 4,0 0,4 -4,0 z M 188,88 l 4,0 0,4 -4,0 z M 192,88 l 4,0 0,4 -4,0 z M 212,88 l 4,0 0,4 -4,0 z M 224,88 l 4,0 0,4 -4,0 z M 24,92 l 4,0 0,4 -4,0 z M 28,92 l 4,0 0,4 -4,0 z M 32,92 l 4,0 0,4 -4,0 z M 40,92 l 4,0 0,4 -4,0 z M 44,92 l 4,0 0,4 -4,0 z M 52,92 l 4,0 0,4 -4,0 z M 56,92 l 4,0 0,4 -4,0 z M 68,92 l 4,0 0,4 -4,0 z M 72,92 l 4,0 0,4 -4,0 z M 76,92 l 4,0 0,4 -4,0 z M 80,92 l 4,0 0,4 -4,0 z M 84,92 l 4,0 0,4 -4,0 z M 88,92 l 4,0 0,4 -4,0 z M 92,92 l 4,0 0,4 -4,0 z M 96,92 l 4,0 0,4 -4,0 z M 108,92 l 4,0 0,4 -4,0 z M 116,92 l 4,0 0,4 -4,0 z M 120,92 l 4,0 0,4 -4,0 z M 128,92 l 4,0 0,4 -4,0 z M 132,92 l 4,0 0,4 -4,0 z M 136,92 l 4,0 0,4 -4,0 z M 144,92 l 4,0 0,4 -4,0 z M 148,92 l 4,0 0,4 -4,0 z M 152,92 l 4,0 0,4 -4,0 z M 164,92 l 4,0 0,4 -4,0 z M 172,92 l 4,0 0,4 -4,0 z M 196,92 l 4,0 0,4 -4,0 z M 200,92 l 4,0 0,4 -4,0 z M 212,92 l 4,0 0,4 -4,0 z M 224,92 l 4,0 0,4 -4,0 z M 20,96 l 4,0 0,4 -4,0 z M 24,96 l 4,0 0,4 -4,0 z M 28,96 l 4,0 0,4 -4,0 z M 36,96 l 4,0 0,4 -4,0 z M 48,96 l 4,0 0,4 -4,0 z M 52,96 l 4,0 0,4 -4,0 z M 64,96 l 4,0 0,4 -4,0 z M 68,96 l 4,0 0,4 -4,0 z M 84,96 l 4,0 0,4 -4,0 z M 88,96 l 4,0 0,4 -4,0 z M 92,96 l 4,0 0,4 -4,0 z M 104,96 l 4,0 0,4 -4,0 z M 112,96 l 4,0 0,4 -4,0 z M 128,96 l 4,0 0,4 -4,0 z M 136,96 l 4,0 0,4 -4,0 z M 140,96 l 4,0 0,4 -4,0 z M 148,96 l 4,0 0,4 -4,0 z M 152,96 l 4,0 0,4 -4,0 z M 168,96 l 4,0 0,4 -4,0 z M 180,96 l 4,0 0,4 -4,0 z M 184,96 l 4,0 0,4 -4,0 z M 188,96 l 4,0 0,4 -4,0 z M 196,96 l 4,0 0,4 -4,0 z M 200,96 l 4,0 0,4 -4,0 z M 212,96 l 4,0 0,4 -4,0 z M 220,96 l 4,0 0,4 -4,0 z M 20,100 l 4,0 0,4 -4,0 z M 28,100 l 4,0 0,4 -4,0 z M 36,100 l 4,0 0,4 -4,0 z M 40,100 l 4,0 0,4 -4,0 z M 44,100 l 4,0 0,4 -4,0 z M 48,100 l 4,0 0,4 -4,0 z M 64,100 l 4,0 0,4 -4,0 z M 76,100 l 4,0 0,4 -4,0 z M 80,100 l 4,0 0,4 -4,0 z M 88,100 l 4,0 0,4 -4,0 z M 92,100 l 4,0 0,4 -4,0 z M 100,100 l 4,0 0,4 -4,0 z M 120,100 l 4,0 0,4 -4,0 z M 124,100 l 4,0 0,4 -4,0 z M 128,100 l 4,0 0,4 -4,0 z M 136,100 l 4,0 0,4 -4,0 z M 156,100 l 4,0 0,4 -4,0 z M 168,100 l 4,0 0,4 -4,0 z M 172,100 l 4,0 0,4 -4,0 z M 192,100 l 4,0 0,4 -4,0 z M 204,100 l 4,0 0,4 -4,0 z M 20,104 l 4,0 0,4 -4,0 z M 36,104 l 4,0 0,4 -4,0 z M 48,104 l 4,0 0,4 -4,0 z M 64,104 l 4,0 0,4 -4,0 z M 68,104 l 4,0 0,4 -4,0 z M 88,104 l 4,0 0,4 -4,0 z M 96,104 l 4,0 0,4 -4,0 z M 104,104 l 4,0 0,4 -4,0 z M 108,104 l 4,0 0,4 -4,0 z M 112,104 l 4,0 0,4 -4,0 z M 120,104 l 4,0 0,4 -4,0 z M 128,104 l 4,0 0,4 -4,0 z M 140,104 l 4,0 0,4 -4,0 z M 148,104 l 4,0 0,4 -4,0 z M 152,104 l 4,0 0,4 -4,0 z M 156,104 l 4,0 0,4 -4,0 z M 160,104 l 4,0 0,4 -4,0 z M 176,104 l 4,0 0,4 -4,0 z M 180,104 l 4,0 0,4 -4,0 z M 188,104 l 4,0 0,4 -4,0 z M 200,104 l 4,0 0,4 -4,0 z M 220,104 l 4,0 0,4 -4,0 z M 20,108 l 4,0 0,4 -4,0 z M 40,108 l 4,0 0,4 -4,0 z M 44,108 l 4,0 0,4 -4,0 z M 52,108 l 4,0 0,4 -4,0 z M 68,108 l 4,0 0,4 -4,0 z M 88,108 l 4,0 0,4 -4,0 z M 96,108 l 4,0 0,4 -4,0 z M 104,108 l 4,0 0,4 -4,0 z M 144,108 l 4,0 0,4 -4,0 z M 152,108 l 4,0 0,4 -4,0 z M 156,108 l 4,0 0,4 -4,0 z M 164,108 l 4,0 0,4 -4,0 z M 172,108 l 4,0 0,4 -4,0 z M 184,108 l 4,0 0,4 -4,0 z M 188,108 l 4,0 0,4 -4,0 z M 196,108 l 4,0 0,4 -4,0 z M 200,108 l 4,0 0,4 -4,0 z M 212,108 l 4,0 0,4 -4,0 z M 216,108 l 4,0 0,4 -4,0 z M 28,112 l 4,0 0,4 -4,0 z M 32,112 l 4,0 0,4 -4,0 z M 40,112 l 4,0 0,4 -4,0 z M 48,112 l 4,0 0,4 -4,0 z M 56,112 l 4,0 0,4 -4,0 z M 60,112 l 4,0 0,4 -4,0 z M 64,112 l 4,0 0,4 -4,0 z M 72,112 l 4,0 0,4 -4,0 z M 96,112 l 4,0 0,4 -4,0 z M 100,112 l 4,0 0,4 -4,0 z M 112,112 l 4,0 0,4 -4,0 z M 116,112 l 4,0 0,4 -4,0 z M 120,112 l 4,0 0,4 -4,0 z M 124,112 l 4,0 0,4 -4,0 z M 128,112 l 4,0 0,4 -4,0 z M 136,112 l 4,0 0,4 -4,0 z M 140,112 l 4,0 0,4 -4,0 z M 148,112 l 4,0 0,4 -4,0 z M 160,112 l 4,0 0,4 -4,0 z M 168,112 l 4,0 0,4 -4,0 z M 172,112 l 4,0 0,4 -4,0 z M 176,112 l 4,0 0,4 -4,0 z M 180,112 l 4,0 0,4 -4,0 z M 184,112 l 4,0 0,4 -4,0 z M 192,112 l 4,0 0,4 -4,0 z M 200,112 l 4,0 0,4 -4,0 z M 216,112 l 4,0 0,4 -4,0 z M 220,112 l 4,0 0,4 -4,0 z M 20,116 l 4,0 0,4 -4,0 z M 32,116 l 4,0 0,4 -4,0 z M 36,116 l 4,0 0,4 -4,0 z M 40,116 l 4,0 0,4 -4,0 z M 44,116 l 4,0 0,4 -4,0 z M 48,116 l 4,0 0,4 -4,0 z M 52,116 l 4,0 0,4 -4,0 z M 56,116 l 4,0 0,4 -4,0 z M 60,116 l 4,0 0,4 -4,0 z M 68,116 l 4,0 0,4 -4,0 z M 88,116 l 4,0 0,4 -4,0 z M 104,116 l 4,0 0,4 -4,0 z M 112,116 l 4,0 0,4 -4,0 z M 116,116 l 4,0 0,4 -4,0 z M 120,116 l 4,0 0,4 -4,0 z M 124,116 l 4,0 0,4 -4,0 z M 128,116 l 4,0 0,4 -4,0 z M 132,116 l 4,0 0,4 -4,0 z M 136,116 l 4,0 0,4 -4,0 z M 140,116 l 4,0 0,4 -4,0 z M 144,116 l 4,0 0,4 -4,0 z M 152,116 l 4,0 0,4 -4,0 z M 160,116 l 4,0 0,4 -4,0 z M 164,116 l 4,0 0,4 -4,0 z M 172,116 l 4,0 0,4 -4,0 z M 188,116 l 4,0 0,4 -4,0 z M 196,116 l 4,0 0,4 -4,0 z M 200,116 l 4,0 0,4 -4,0 z M 204,116 l 4,0 0,4 -4,0 z M 208,116 l 4,0 0,4 -4,0 z M 212,116 l 4,0 0,4 -4,0 z M 216,116 l 4,0 0,4 -4,0 z M 24,120 l 4,0 0,4 -4,0 z M 28,120 l 4,0 0,4 -4,0 z M 36,120 l 4,0 0,4 -4,0 z M 52,120 l 4,0 0,4 -4,0 z M 56,120 l 4,0 0,4 -4,0 z M 60,120 l 4,0 0,4 -4,0 z M 64,120 l 4,0 0,4 -4,0 z M 68,120 l 4,0 0,4 -4,0 z M 72,120 l 4,0 0,4 -4,0 z M 80,120 l 4,0 0,4 -4,0 z M 92,120 l 4,0 0,4 -4,0 z M 96,120 l 4,0 0,4 -4,0 z M 100,120 l 4,0 0,4 -4,0 z M 116,120 l 4,0 0,4 -4,0 z M 132,120 l 4,0 0,4 -4,0 z M 136,120 l 4,0 0,4 -4,0 z M 140,120 l 4,0 0,4 -4,0 z M 144,120 l 4,0 0,4 -4,0 z M 168,120 l 4,0 0,4 -4,0 z M 180,120 l 4,0 0,4 -4,0 z M 184,120 l 4,0 0,4 -4,0 z M 188,120 l 4,0 0,4 -4,0 z M 196,120 l 4,0 0,4 -4,0 z M 212,120 l 4,0 0,4 -4,0 z M 224,120 l 4,0 0,4 -4,0 z M 24,124 l 4,0 0,4 -4,0 z M 28,124 l 4,0 0,4 -4,0 z M 32,124 l 4,0 0,4 -4,0 z M 36,124 l 4,0 0,4 -4,0 z M 44,124 l 4,0 0,4 -4,0 z M 52,124 l 4,0 0,4 -4,0 z M 68,124 l 4,0 0,4 -4,0 z M 92,124 l 4,0 0,4 -4,0 z M 100,124 l 4,0 0,4 -4,0 z M 104,124 l 4,0 0,4 -4,0 z M 116,124 l 4,0 0,4 -4,0 z M 124,124 l 4,0 0,4 -4,0 z M 132,124 l 4,0 0,4 -4,0 z M 136,124 l 4,0 0,4 -4,0 z M 152,124 l 4,0 0,4 -4,0 z M 156,124 l 4,0 0,4 -4,0 z M 164,124 l 4,0 0,4 -4,0 z M 172,124 l 4,0 0,4 -4,0 z M 184,124 l 4,0 0,4 -4,0 z M 196,124 l 4,0 0,4 -4,0 z M 204,124 l 4,0 0,4 -4,0 z M 212,124 l 4,0 0,4 -4,0 z M 216,124 l 4,0 0,4 -4,0 z M 228,124 l 4,0 0,4 -4,0 z M 24,128 l 4,0 0,4 -4,0 z M 32,128 l 4,0 0,4 -4,0 z M 36,128 l 4,0 0,4 -4,0 z M 52,128 l 4,0 0,4 -4,0 z M 64,128 l 4,0 0,4 -4,0 z M 80,128 l 4,0 0,4 -4,0 z M 96,128 l 4,0 0,4 -4,0 z M 100,128 l 4,0 0,4 -4,0 z M 112,128 l 4,0 0,4 -4,0 z M 116,128 l 4,0 0,4 -4,0 z M 132,128 l 4,0 0,4 -4,0 z M 140,128 l 4,0 0,4 -4,0 z M 148,128 l 4,0 0,4 -4,0 z M 152,128 l 4,0 0,4 -4,0 z M 164,128 l 4,0 0,4 -4,0 z M 176,128 l 4,0 0,4 -4,0 z M 180,128 l 4,0 0,4 -4,0 z M 184,128 l 4,0 0,4 -4,0 z M 188,128 l 4,0 0,4 -4,0 z M 196,128 l 4,0 0,4 -4,0 z M 212,128 l 4,0 0,4 -4,0 z M 20,132 l 4,0 0,4 -4,0 z M 24,132 l 4,0 0,4 -4,0 z M 36,132 l 4,0 0,4 -4,0 z M 40,132 l 4,0 0,4 -4,0 z M 44,132 l 4,0 0,4 -4,0 z M 48,132 l 4,0 0,4 -4,0 z M 52,132 l 4,0 0,4 -4,0 z M 60,132 l 4,0 0,4 -4,0 z M 68,132 l 4,0 0,4 -4,0 z M 72,132 l 4,0 0,4 -4,0 z M 80,132 l 4,0 0,4 -4,0 z M 92,132 l 4,0 0,4 -4,0 z M 116,132 l 4,0 0,4 -4,0 z M 120,132 l 4,0 0,4 -4,0 z M 124,132 l 4,0 0,4 -4,0 z M 128,132 l 4,0 0,4 -4,0 z M 132,132 l 4,0 0,4 -4,0 z M 144,132 l 4,0 0,4 -4,0 z M 148,132 l 4,0 0,4 -4,0 z M 152,132 l 4,0 0,4 -4,0 z M 156,132 l 4,0 0,4 -4,0 z M 160,132 l 4,0 0,4 -4,0 z M 172,132 l 4,0 0,4 -4,0 z M 176,132 l 4,0 0,4 -4,0 z M 192,132 l 4,0 0,4 -4,0 z M 196,132 l 4,0 0,4 -4,0 z M 200,132 l 4,0 0,4 -4,0 z M 204,132 l 4,0 0,4 -4,0 z M 208,132 l 4,0 0,4 -4,0 z M 212,132 l 4,0 0,4 -4,0 z M 20,136 l 4,0 0,4 -4,0 z M 36,136 l 4,0 0,4 -4,0 z M 52,136 l 4,0 0,4 -4,0 z M 72,136 l 4,0 0,4 -4,0 z M 92,136 l 4,0 0,4 -4,0 z M 96,136 l 4,0 0,4 -4,0 z M 108,136 l 4,0 0,4 -4,0 z M 116,136 l 4,0 0,4 -4,0 z M 124,136 l 4,0 0,4 -4,0 z M 136,136 l 4,0 0,4 -4,0 z M 148,136 l 4,0 0,4 -4,0 z M 156,136 l 4,0 0,4 -4,0 z M 164,136 l 4,0 0,4 -4,0 z M 168,136 l 4,0 0,4 -4,0 z M 172,136 l 4,0 0,4 -4,0 z M 180,136 l 4,0 0,4 -4,0 z M 184,136 l 4,0 0,4 -4,0 z M 200,136 l 4,0 0,4 -4,0 z M 204,136 l 4,0 0,4 -4,0 z M 208,136 l 4,0 0,4 -4,0 z M 212,136 l 4,0 0,4 -4,0 z M 216,136 l 4,0 0,4 -4,0 z M 220,136 l 4,0 0,4 -4,0 z M 224,136 l 4,0 0,4 -4,0 z M 228,136 l 4,0 0,4 -4,0 z M 20,140 l 4,0 0,4 -4,0 z M 24,140 l 4,0 0,4 -4,0 z M 28,140 l 4,0 0,4 -4,0 z M 32,140 l 4,0 0,4 -4,0 z M 44,140 l 4,0 0,4 -4,0 z M 56,140 l 4,0 0,4 -4,0 z M 64,140 l 4,0 0,4 -4,0 z M 72,140 l 4,0 0,4 -4,0 z M 76,140 l 4,0 0,4 -4,0 z M 84,140 l 4,0 0,4 -4,0 z M 92,140 l 4,0 0,4 -4,0 z M 108,140 l 4,0 0,4 -4,0 z M 116,140 l 4,0 0,4 -4,0 z M 124,140 l 4,0 0,4 -4,0 z M 136,140 l 4,0 0,4 -4,0 z M 140,140 l 4,0 0,4 -4,0 z M 144,140 l 4,0 0,4 -4,0 z M 156,140 l 4,0 0,4 -4,0 z M 160,140 l 4,0 0,4 -4,0 z M 164,140 l 4,0 0,4 -4,0 z M 172,140 l 4,0 0,4 -4,0 z M 188,140 l 4,0 0,4 -4,0 z M 192,140 l 4,0 0,4 -4,0 z M 196,140 l 4,0 0,4 -4,0 z M 200,140 l 4,0 0,4 -4,0 z M 204,140 l 4,0 0,4 -4,0 z M 208,140 l 4,0 0,4 -4,0 z M 216,140 l 4,0 0,4 -4,0 z M 228,140 l 4,0 0,4 -4,0 z M 24,144 l 4,0 0,4 -4,0 z M 28,144 l 4,0 0,4 -4,0 z M 40,144 l 4,0 0,4 -4,0 z M 48,144 l 4,0 0,4 -4,0 z M 52,144 l 4,0 0,4 -4,0 z M 76,144 l 4,0 0,4 -4,0 z M 80,144 l 4,0 0,4 -4,0 z M 88,144 l 4,0 0,4 -4,0 z M 92,144 l 4,0 0,4 -4,0 z M 104,144 l 4,0 0,4 -4,0 z M 108,144 l 4,0 0,4 -4,0 z M 116,144 l 4,0 0,4 -4,0 z M 124,144 l 4,0 0,4 -4,0 z M 140,144 l 4,0 0,4 -4,0 z M 156,144 l 4,0 0,4 -4,0 z M 160,144 l 4,0 0,4 -4,0 z M 176,144 l 4,0 0,4 -4,0 z M 180,144 l 4,0 0,4 -4,0 z M 184,144 l 4,0 0,4 -4,0 z M 188,144 l 4,0 0,4 -4,0 z M 196,144 l 4,0 0,4 -4,0 z M 200,144 l 4,0 0,4 -4,0 z M 208,144 l 4,0 0,4 -4,0 z M 212,144 l 4,0 0,4 -4,0 z M 224,144 l 4,0 0,4 -4,0 z M 228,144 l 4,0 0,4 -4,0 z M 20,148 l 4,0 0,4 -4,0 z M 24,148 l 4,0 0,4 -4,0 z M 28,148 l 4,0 0,4 -4,0 z M 44,148 l 4,0 0,4 -4,0 z M 48,148 l 4,0 0,4 -4,0 z M 52,148 l 4,0 0,4 -4,0 z M 60,148 l 4,0 0,4 -4,0 z M 68,148 l 4,0 0,4 -4,0 z M 72,148 l 4,0 0,4 -4,0 z M 76,148 l 4,0 0,4 -4,0 z M 80,148 l 4,0 0,4 -4,0 z M 92,148 l 4,0 0,4 -4,0 z M 96,148 l 4,0 0,4 -4,0 z M 108,148 l 4,0 0,4 -4,0 z M 116,148 l 4,0 0,4 -4,0 z M 120,148 l 4,0 0,4 -4,0 z M 128,148 l 4,0 0,4 -4,0 z M 132,148 l 4,0 0,4 -4,0 z M 144,148 l 4,0 0,4 -4,0 z M 156,148 l 4,0 0,4 -4,0 z M 160,148 l 4,0 0,4 -4,0 z M 164,148 l 4,0 0,4 -4,0 z M 168,148 l 4,0 0,4 -4,0 z M 188,148 l 4,0 0,4 -4,0 z M 192,148 l 4,0 0,4 -4,0 z M 204,148 l 4,0 0,4 -4,0 z M 212,148 l 4,0 0,4 -4,0 z M 216,148 l 4,0 0,4 -4,0 z M 220,148 l 4,0 0,4 -4,0 z M 228,148 l 4,0 0,4 -4,0 z M 20,152 l 4,0 0,4 -4,0 z M 24,152 l 4,0 0,4 -4,0 z M 32,152 l 4,0 0,4 -4,0 z M 36,152 l 4,0 0,4 -4,0 z M 40,152 l 4,0 0,4 -4,0 z M 48,152 l 4,0 0,4 -4,0 z M 60,152 l 4,0 0,4 -4,0 z M 64,152 l 4,0 0,4 -4,0 z M 68,152 l 4,0 0,4 -4,0 z M 84,152 l 4,0 0,4 -4,0 z M 88,152 l 4,0 0,4 -4,0 z M 92,152 l 4,0 0,4 -4,0 z M 104,152 l 4,0 0,4 -4,0 z M 112,152 l 4,0 0,4 -4,0 z M 120,152 l 4,0 0,4 -4,0 z M 136,152 l 4,0 0,4 -4,0 z M 140,152 l 4,0 0,4 -4,0 z M 160,152 l 4,0 0,4 -4,0 z M 164,152 l 4,0 0,4 -4,0 z M 168,152 l 4,0 0,4 -4,0 z M 176,152 l 4,0 0,4 -4,0 z M 180,152 l 4,0 0,4 -4,0 z M 184,152 l 4,0 0,4 -4,0 z M 188,152 l 4,0 0,4 -4,0 z M 192,152 l 4,0 0,4 -4,0 z M 196,152 l 4,0 0,4 -4,0 z M 200,152 l 4,0 0,4 -4,0 z M 204,152 l 4,0 0,4 -4,0 z M 208,152 l 4,0 0,4 -4,0 z M 212,152 l 4,0 0,4 -4,0 z M 216,152 l 4,0 0,4 -4,0 z M 20,156 l 4,0 0,4 -4,0 z M 24,156 l 4,0 0,4 -4,0 z M 28,156 l 4,0 0,4 -4,0 z M 32,156 l 4,0 0,4 -4,0 z M 40,156 l 4,0 0,4 -4,0 z M 44,156 l 4,0 0,4 -4,0 z M 56,156 l 4,0 0,4 -4,0 z M 60,156 l 4,0 0,4 -4,0 z M 64,156 l 4,0 0,4 -4,0 z M 68,156 l 4,0 0,4 -4,0 z M 80,156 l 4,0 0,4 -4,0 z M 84,156 l 4,0 0,4 -4,0 z M 96,156 l 4,0 0,4 -4,0 z M 116,156 l 4,0 0,4 -4,0 z M 124,156 l 4,0 0,4 -4,0 z M 152,156 l 4,0 0,4 -4,0 z M 156,156 l 4,0 0,4 -4,0 z M 160,156 l 4,0 0,4 -4,0 z M 168,156 l 4,0 0,4 -4,0 z M 172,156 l 4,0 0,4 -4,0 z M 176,156 l 4,0 0,4 -4,0 z M 196,156 l 4,0 0,4 -4,0 z M 200,156 l 4,0 0,4 -4,0 z M 204,156 l 4,0 0,4 -4,0 z M 212,156 l 4,0 0,4 -4,0 z M 216,156 l 4,0 0,4 -4,0 z M 220,156 l 4,0 0,4 -4,0 z M 228,156 l 4,0 0,4 -4,0 z M 24,160 l 4,0 0,4 -4,0 z M 28,160 l 4,0 0,4 -4,0 z M 32,160 l 4,0 0,4 -4,0 z M 36,160 l 4,0 0,4 -4,0 z M 52,160 l 4,0 0,4 -4,0 z M 56,160 l 4,0 0,4 -4,0 z M 60,160 l 4,0 0,4 -4,0 z M 64,160 l 4,0 0,4 -4,0 z M 84,160 l 4,0 0,4 -4,0 z M 104,160 l 4,0 0,4 -4,0 z M 120,160 l 4,0 0,4 -4,0 z M 124,160 l 4,0 0,4 -4,0 z M 136,160 l 4,0 0,4 -4,0 z M 140,160 l 4,0 0,4 -4,0 z M 144,160 l 4,0 0,4 -4,0 z M 152,160 l 4,0 0,4 -4,0 z M 168,160 l 4,0 0,4 -4,0 z M 184,160 l 4,0 0,4 -4,0 z M 188,160 l 4,0 0,4 -4,0 z M 196,160 l 4,0 0,4 -4,0 z M 200,160 l 4,0 0,4 -4,0 z M 204,160 l 4,0 0,4 -4,0 z M 212,160 l 4,0 0,4 -4,0 z M 216,160 l 4,0 0,4 -4,0 z M 228,160 l 4,0 0,4 -4,0 z M 20,164 l 4,0 0,4 -4,0 z M 28,164 l 4,0 0,4 -4,0 z M 32,164 l 4,0 0,4 -4,0 z M 36,164 l 4,0 0,4 -4,0 z M 40,164 l 4,0 0,4 -4,0 z M 44,164 l 4,0 0,4 -4,0 z M 52,164 l 4,0 0,4 -4,0 z M 60,164 l 4,0 0,4 -4,0 z M 64,164 l 4,0 0,4 -4,0 z M 76,164 l 4,0 0,4 -4,0 z M 80,164 l 4,0 0,4 -4,0 z M 88,164 l 4,0 0,4 -4,0 z M 92,164 l 4,0 0,4 -4,0 z M 100,164 l 4,0 0,4 -4,0 z M 112,164 l 4,0 0,4 -4,0 z M 116,164 l 4,0 0,4 -4,0 z M 120,164 l 4,0 0,4 -4,0 z M 128,164 l 4,0 0,4 -4,0 z M 132,164 l 4,0 0,4 -4,0 z M 136,164 l 4,0 0,4 -4,0 z M 144,164 l 4,0 0,4 -4,0 z M 152,164 l 4,0 0,4 -4,0 z M 156,164 l 4,0 0,4 -4,0 z M 164,164 l 4,0 0,4 -4,0 z M 172,164 l 4,0 0,4 -4,0 z M 184,164 l 4,0 0,4 -4,0 z M 208,164 l 4,0 0,4 -4,0 z M 212,164 l 4,0 0,4 -4,0 z M 216,164 l 4,0 0,4 -4,0 z M 228,164 l 4,0 0,4 -4,0 z M 24,168 l 4,0 0,4 -4,0 z M 28,168 l 4,0 0,4 -4,0 z M 32,168 l 4,0 0,4 -4,0 z M 40,168 l 4,0 0,4 -4,0 z M 48,168 l 4,0 0,4 -4,0 z M 56,168 l 4,0 0,4 -4,0 z M 72,168 l 4,0 0,4 -4,0 z M 76,168 l 4,0 0,4 -4,0 z M 88,168 l 4,0 0,4 -4,0 z M 92,168 l 4,0 0,4 -4,0 z M 104,168 l 4,0 0,4 -4,0 z M 108,168 l 4,0 0,4 -4,0 z M 112,168 l 4,0 0,4 -4,0 z M 116,168 l 4,0 0,4 -4,0 z M 120,168 l 4,0 0,4 -4,0 z M 128,168 l 4,0 0,4 -4,0 z M 132,168 l 4,0 0,4 -4,0 z M 140,168 l 4,0 0,4 -4,0 z M 148,168 l 4,0 0,4 -4,0 z M 156,168 l 4,0 0,4 -4,0 z M 160,168 l 4,0 0,4 -4,0 z M 164,168 l 4,0 0,4 -4,0 z M 168,168 l 4,0 0,4 -4,0 z M 180,168 l 4,0 0,4 -4,0 z M 184,168 l 4,0 0,4 -4,0 z M 188,168 l 4,0 0,4 -4,0 z M 196,168 l 4,0 0,4 -4,0 z M 200,168 l 4,0 0,4 -4,0 z M 204,168 l 4,0 0,4 -4,0 z M 212,168 l 4,0 0,4 -4,0 z M 216,168 l 4,0 0,4 -4,0 z M 20,172 l 4,0 0,4 -4,0 z M 28,172 l 4,0 0,4 -4,0 z M 36,172 l 4,0 0,4 -4,0 z M 40,172 l 4,0 0,4 -4,0 z M 44,172 l 4,0 0,4 -4,0 z M 48,172 l 4,0 0,4 -4,0 z M 56,172 l 4,0 0,4 -4,0 z M 60,172 l 4,0 0,4 -4,0 z M 64,172 l 4,0 0,4 -4,0 z M 84,172 l 4,0 0,4 -4,0 z M 88,172 l 4,0 0,4 -4,0 z M 96,172 l 4,0 0,4 -4,0 z M 100,172 l 4,0 0,4 -4,0 z M 104,172 l 4,0 0,4 -4,0 z M 112,172 l 4,0 0,4 -4,0 z M 128,172 l 4,0 0,4 -4,0 z M 140,172 l 4,0 0,4 -4,0 z M 144,172 l 4,0 0,4 -4,0 z M 156,172 l 4,0 0,4 -4,0 z M 160,172 l 4,0 0,4 -4,0 z M 164,172 l 4,0 0,4 -4,0 z M 188,172 l 4,0 0,4 -4,0 z M 204,172 l 4,0 0,4 -4,0 z M 212,172 l 4,0 0,4 -4,0 z M 216,172 l 4,0 0,4 -4,0 z M 24,176 l 4,0 0,4 -4,0 z M 36,176 l 4,0 0,4 -4,0 z M 40,176 l 4,0 0,4 -4,0 z M 48,176 l 4,0 0,4 -4,0 z M 56,176 l 4,0 0,4 -4,0 z M 60,176 l 4,0 0,4 -4,0 z M 64,176 l 4,0 0,4 -4,0 z M 72,176 l 4,0 0,4 -4,0 z M 80,176 l 4,0 0,4 -4,0 z M 84,176 l 4,0 0,4 -4,0 z M 116,176 l 4,0 0,4 -4,0 z M 136,176 l 4,0 0,4 -4,0 z M 140,176 l 4,0 0,4 -4,0 z M 148,176 l 4,0 0,4 -4,0 z M 156,176 l 4,0 0,4 -4,0 z M 164,176 l 4,0 0,4 -4,0 z M 168,176 l 4,0 0,4 -4,0 z M 180,176 l 4,0 0,4 -4,0 z M 184,176 l 4,0 0,4 -4,0 z M 188,176 l 4,0 0,4 -4,0 z M 196,176 l 4,0 0,4 -4,0 z M 200,176 l 4,0 0,4 -4,0 z M 204,176 l 4,0 0,4 -4,0 z M 224,176 l 4,0 0,4 -4,0 z M 24,180 l 4,0 0,4 -4,0 z M 32,180 l 4,0 0,4 -4,0 z M 44,180 l 4,0 0,4 -4,0 z M 48,180 l 4,0 0,4 -4,0 z M 52,180 l 4,0 0,4 -4,0 z M 56,180 l 4,0 0,4 -4,0 z M 64,180 l 4,0 0,4 -4,0 z M 68,180 l 4,0 0,4 -4,0 z M 88,180 l 4,0 0,4 -4,0 z M 104,180 l 4,0 0,4 -4,0 z M 112,180 l 4,0 0,4 -4,0 z M 116,180 l 4,0 0,4 -4,0 z M 120,180 l 4,0 0,4 -4,0 z M 128,180 l 4,0 0,4 -4,0 z M 132,180 l 4,0 0,4 -4,0 z M 136,180 l 4,0 0,4 -4,0 z M 152,180 l 4,0 0,4 -4,0 z M 156,180 l 4,0 0,4 -4,0 z M 160,180 l 4,0 0,4 -4,0 z M 164,180 l 4,0 0,4 -4,0 z M 184,180 l 4,0 0,4 -4,0 z M 188,180 l 4,0 0,4 -4,0 z M 196,180 l 4,0 0,4 -4,0 z M 200,180 l 4,0 0,4 -4,0 z M 212,180 l 4,0 0,4 -4,0 z M 224,180 l 4,0 0,4 -4,0 z M 20,184 l 4,0 0,4 -4,0 z M 28,184 l 4,0 0,4 -4,0 z M 36,184 l 4,0 0,4 -4,0 z M 48,184 l 4,0 0,4 -4,0 z M 52,184 l 4,0 0,4 -4,0 z M 64,184 l 4,0 0,4 -4,0 z M 68,184 l 4,0 0,4 -4,0 z M 72,184 l 4,0 0,4 -4,0 z M 80,184 l 4,0 0,4 -4,0 z M 92,184 l 4,0 0,4 -4,0 z M 96,184 l 4,0 0,4 -4,0 z M 100,184 l 4,0 0,4 -4,0 z M 112,184 l 4,0 0,4 -4,0 z M 120,184 l 4,0 0,4 -4,0 z M 124,184 l 4,0 0,4 -4,0 z M 136,184 l 4,0 0,4 -4,0 z M 140,184 l 4,0 0,4 -4,0 z M 144,184 l 4,0 0,4 -4,0 z M 160,184 l 4,0 0,4 -4,0 z M 168,184 l 4,0 0,4 -4,0 z M 184,184 l 4,0 0,4 -4,0 z M 188,184 l 4,0 0,4 -4,0 z M 192,184 l 4,0 0,4 -4,0 z M 204,184 l 4,0 0,4 -4,0 z M 212,184 l 4,0 0,4 -4,0 z M 216,184 l 4,0 0,4 -4,0 z M 220,184 l 4,0 0,4 -4,0 z M 20,188 l 4,0 0,4 -4,0 z M 24,188 l 4,0 0,4 -4,0 z M 32,188 l 4,0 0,4 -4,0 z M 36,188 l 4,0 0,4 -4,0 z M 40,188 l 4,0 0,4 -4,0 z M 44,188 l 4,0 0,4 -4,0 z M 48,188 l 4,0 0,4 -4,0 z M 52,188 l 4,0 0,4 -4,0 z M 56,188 l 4,0 0,4 -4,0 z M 60,188 l 4,0 0,4 -4,0 z M 64,188 l 4,0 0,4 -4,0 z M 68,188 l 4,0 0,4 -4,0 z M 72,188 l 4,0 0,4 -4,0 z M 88,188 l 4,0 0,4 -4,0 z M 92,188 l 4,0 0,4 -4,0 z M 100,188 l 4,0 0,4 -4,0 z M 104,188 l 4,0 0,4 -4,0 z M 108,188 l 4,0 0,4 -4,0 z M 116,188 l 4,0 0,4 -4,0 z M 120,188 l 4,0 0,4 -4,0 z M 124,188 l 4,0 0,4 -4,0 z M 128,188 l 4,0 0,4 -4,0 z M 144,188 l 4,0 0,4 -4,0 z M 152,188 l 4,0 0,4 -4,0 z M 156,188 l 4,0 0,4 -4,0 z M 172,188 l 4,0 0,4 -4,0 z M 196,188 l 4,0 0,4 -4,0 z M 204,188 l 4,0 0,4 -4,0 z M 208,188 l 4,0 0,4 -4,0 z M 212,188 l 4,0 0,4 -4,0 z M 224,188 l 4,0 0,4 -4,0 z M 228,188 l 4,0 0,4 -4,0 z M 24,192 l 4,0 0,4 -4,0 z M 28,192 l 4,0 0,4 -4,0 z M 52,192 l 4,0 0,4 -4,0 z M 56,192 l 4,0 0,4 -4,0 z M 60,192 l 4,0 0,4 -4,0 z M 80,192 l 4,0 0,4 -4,0 z M 92,192 l 4,0 0,4 -4,0 z M 96,192 l 4,0 0,4 -4,0 z M 100,192 l 4,0 0,4 -4,0 z M 112,192 l 4,0 0,4 -4,0 z M 116,192 l 4,0 0,4 -4,0 z M 120,192 l 4,0 0,4 -4,0 z M 124,192 l 4,0 0,4 -4,0 z M 128,192 l 4,0 0,4 -4,0 z M 136,192 l 4,0 0,4 -4,0 z M 140,192 l 4,0 0,4 -4,0 z M 160,192 l 4,0 0,4 -4,0 z M 164,192 l 4,0 0,4 -4,0 z M 168,192 l 4,0 0,4 -4,0 z M 176,192 l 4,0 0,4 -4,0 z M 180,192 l 4,0 0,4 -4,0 z M 184,192 l 4,0 0,4 -4,0 z M 188,192 l 4,0 0,4 -4,0 z M 208,192 l 4,0 0,4 -4,0 z M 212,192 l 4,0 0,4 -4,0 z M 216,192 l 4,0 0,4 -4,0 z M 220,192 l 4,0 0,4 -4,0 z M 32,196 l 4,0 0,4 -4,0 z M 44,196 l 4,0 0,4 -4,0 z M 48,196 l 4,0 0,4 -4,0 z M 56,196 l 4,0 0,4 -4,0 z M 60,196 l 4,0 0,4 -4,0 z M 64,196 l 4,0 0,4 -4,0 z M 68,196 l 4,0 0,4 -4,0 z M 72,196 l 4,0 0,4 -4,0 z M 76,196 l 4,0 0,4 -4,0 z M 84,196 l 4,0 0,4 -4,0 z M 88,196 l 4,0 0,4 -4,0 z M 92,196 l 4,0 0,4 -4,0 z M 96,196 l 4,0 0,4 -4,0 z M 100,196 l 4,0 0,4 -4,0 z M 116,196 l 4,0 0,4 -4,0 z M 120,196 l 4,0 0,4 -4,0 z M 124,196 l 4,0 0,4 -4,0 z M 128,196 l 4,0 0,4 -4,0 z M 132,196 l 4,0 0,4 -4,0 z M 136,196 l 4,0 0,4 -4,0 z M 144,196 l 4,0 0,4 -4,0 z M 152,196 l 4,0 0,4 -4,0 z M 156,196 l 4,0 0,4 -4,0 z M 160,196 l 4,0 0,4 -4,0 z M 164,196 l 4,0 0,4 -4,0 z M 172,196 l 4,0 0,4 -4,0 z M 176,196 l 4,0 0,4 -4,0 z M 196,196 l 4,0 0,4 -4,0 z M 200,196 l 4,0 0,4 -4,0 z M 204,196 l 4,0 0,4 -4,0 z M 208,196 l 4,0 0,4 -4,0 z M 212,196 l 4,0 0,4 -4,0 z M 216,196 l 4,0 0,4 -4,0 z M 52,200 l 4,0 0,4 -4,0 z M 56,200 l 4,0 0,4 -4,0 z M 60,200 l 4,0 0,4 -4,0 z M 68,200 l 4,0 0,4 -4,0 z M 72,200 l 4,0 0,4 -4,0 z M 76,200 l 4,0 0,4 -4,0 z M 80,200 l 4,0 0,4 -4,0 z M 92,200 l 4,0 0,4 -4,0 z M 96,200 l 4,0 0,4 -4,0 z M 104,200 l 4,0 0,4 -4,0 z M 108,200 l 4,0 0,4 -4,0 z M 116,200 l 4,0 0,4 -4,0 z M 132,200 l 4,0 0,4 -4,0 z M 140,200 l 4,0 0,4 -4,0 z M 144,200 l 4,0 0,4 -4,0 z M 148,200 l 4,0 0,4 -4,0 z M 152,200 l 4,0 0,4 -4,0 z M 160,200 l 4,0 0,4 -4,0 z M 164,200 l 4,0 0,4 -4,0 z M 168,200 l 4,0 0,4 -4,0 z M 176,200 l 4,0 0,4 -4,0 z M 180,200 l 4,0 0,4 -4,0 z M 184,200 l 4,0 0,4 -4,0 z M 188,200 l 4,0 0,4 -4,0 z M 196,200 l 4,0 0,4 -4,0 z M 212,200 l 4,0 0,4 -4,0 z M 20,204 l 4,0 0,4 -4,0 z M 24,204 l 4,0 0,4 -4,0 z M 28,204 l 4,0 0,4 -4,0 z M 32,204 l 4,0 0,4 -4,0 z M 36,204 l 4,0 0,4 -4,0 z M 40,204 l 4,0 0,4 -4,0 z M 44,204 l 4,0 0,4 -4,0 z M 52,204 l 4,0 0,4 -4,0 z M 60,204 l 4,0 0,4 -4,0 z M 68,204 l 4,0 0,4 -4,0 z M 80,204 l 4,0 0,4 -4,0 z M 92,204 l 4,0 0,4 -4,0 z M 100,204 l 4,0 0,4 -4,0 z M 108,204 l 4,0 0,4 -4,0 z M 112,204 l 4,0 0,4 -4,0 z M 116,204 l 4,0 0,4 -4,0 z M 124,204 l 4,0 0,4 -4,0 z M 132,204 l 4,0 0,4 -4,0 z M 144,204 l 4,0 0,4 -4,0 z M 160,204 l 4,0 0,4 -4,0 z M 164,204 l 4,0 0,4 -4,0 z M 168,204 l 4,0 0,4 -4,0 z M 184,204 l 4,0 0,4 -4,0 z M 188,204 l 4,0 0,4 -4,0 z M 196,204 l 4,0 0,4 -4,0 z M 204,204 l 4,0 0,4 -4,0 z M 212,204 l 4,0 0,4 -4,0 z M 224,204 l 4,0 0,4 -4,0 z M 228,204 l 4,0 0,4 -4,0 z M 20,208 l 4,0 0,4 -4,0 z M 44,208 l 4,0 0,4 -4,0 z M 56,208 l 4,0 0,4 -4,0 z M 68,208 l 4,0 0,4 -4,0 z M 84,208 l 4,0 0,4 -4,0 z M 88,208 l 4,0 0,4 -4,0 z M 92,208 l 4,0 0,4 -4,0 z M 96,208 l 4,0 0,4 -4,0 z M 100,208 l 4,0 0,4 -4,0 z M 104,208 l 4,0 0,4 -4,0 z M 108,208 l 4,0 0,4 -4,0 z M 112,208 l 4,0 0,4 -4,0 z M 116,208 l 4,0 0,4 -4,0 z M 132,208 l 4,0 0,4 -4,0 z M 136,208 l 4,0 0,4 -4,0 z M 140,208 l 4,0 0,4 -4,0 z M 148,208 l 4,0 0,4 -4,0 z M 152,208 l 4,0 0,4 -4,0 z M 160,208 l 4,0 0,4 -4,0 z M 168,208 l 4,0 0,4 -4,0 z M 180,208 l 4,0 0,4 -4,0 z M 184,208 l 4,0 0,4 -4,0 z M 196,208 l 4,0 0,4 -4,0 z M 212,208 l 4,0 0,4 -4,0 z M 216,208 l 4,0 0,4 -4,0 z M 228,208 l 4,0 0,4 -4,0 z M 20,212 l 4,0 0,4 -4,0 z M 28,212 l 4,0 0,4 -4,0 z M 32,212 l 4,0 0,4 -4,0 z M 36,212 l 4,0 0,4 -4,0 z M 44,212 l 4,0 0,4 -4,0 z M 52,212 l 4,0 0,4 -4,0 z M 64,212 l 4,0 0,4 -4,0 z M 68,212 l 4,0 0,4 -4,0 z M 76,212 l 4,0 0,4 -4,0 z M 80,212 l 4,0 0,4 -4,0 z M 92,212 l 4,0 0,4 -4,0 z M 96,212 l 4,0 0,4 -4,0 z M 108,212 l 4,0 0,4 -4,0 z M 112,212 l 4,0 0,4 -4,0 z M 116,212 l 4,0 0,4 -4,0 z M 120,212 l 4,0 0,4 -4,0 z M 124,212 l 4,0 0,4 -4,0 z M 128,212 l 4,0 0,4 -4,0 z M 132,212 l 4,0 0,4 -4,0 z M 136,212 l 4,0 0,4 -4,0 z M 140,212 l 4,0 0,4 -4,0 z M 144,212 l 4,0 0,4 -4,0 z M 164,212 l 4,0 0,4 -4,0 z M 168,212 l 4,0 0,4 -4,0 z M 196,212 l 4,0 0,4 -4,0 z M 200,212 l 4,0 0,4 -4,0 z M 204,212 l 4,0 0,4 -4,0 z M 208,212 l 4,0 0,4 -4,0 z M 212,212 l 4,0 0,4 -4,0 z M 228,212 l 4,0 0,4 -4,0 z M 20,216 l 4,0 0,4 -4,0 z M 28,216 l 4,0 0,4 -4,0 z M 32,216 l 4,0 0,4 -4,0 z M 36,216 l 4,0 0,4 -4,0 z M 44,216 l 4,0 0,4 -4,0 z M 52,216 l 4,0 0,4 -4,0 z M 56,216 l 4,0 0,4 -4,0 z M 60,216 l 4,0 0,4 -4,0 z M 64,216 l 4,0 0,4 -4,0 z M 76,216 l 4,0 0,4 -4,0 z M 84,216 l 4,0 0,4 -4,0 z M 88,216 l 4,0 0,4 -4,0 z M 92,216 l 4,0 0,4 -4,0 z M 104,216 l 4,0 0,4 -4,0 z M 120,216 l 4,0 0,4 -4,0 z M 124,216 l 4,0 0,4 -4,0 z M 128,216 l 4,0 0,4 -4,0 z M 132,216 l 4,0 0,4 -4,0 z M 136,216 l 4,0 0,4 -4,0 z M 140,216 l 4,0 0,4 -4,0 z M 160,216 l 4,0 0,4 -4,0 z M 176,216 l 4,0 0,4 -4,0 z M 180,216 l 4,0 0,4 -4,0 z M 184,216 l 4,0 0,4 -4,0 z M 188,216 l 4,0 0,4 -4,0 z M 200,216 l 4,0 0,4 -4,0 z M 212,216 l 4,0 0,4 -4,0 z M 216,216 l 4,0 0,4 -4,0 z M 220,216 l 4,0 0,4 -4,0 z M 224,216 l 4,0 0,4 -4,0 z M 20,220 l 4,0 0,4 -4,0 z M 28,220 l 4,0 0,4 -4,0 z M 32,220 l 4,0 0,4 -4,0 z M 36,220 l 4,0 0,4 -4,0 z M 44,220 l 4,0 0,4 -4,0 z M 52,220 l 4,0 0,4 -4,0 z M 56,220 l 4,0 0,4 -4,0 z M 72,220 l 4,0 0,4 -4,0 z M 76,220 l 4,0 0,4 -4,0 z M 80,220 l 4,0 0,4 -4,0 z M 84,220 l 4,0 0,4 -4,0 z M 88,220 l 4,0 0,4 -4,0 z M 92,220 l 4,0 0,4 -4,0 z M 96,220 l 4,0 0,4 -4,0 z M 108,220 l 4,0 0,4 -4,0 z M 112,220 l 4,0 0,4 -4,0 z M 128,220 l 4,0 0,4 -4,0 z M 136,220 l 4,0 0,4 -4,0 z M 144,220 l 4,0 0,4 -4,0 z M 156,220 l 4,0 0,4 -4,0 z M 168,220 l 4,0 0,4 -4,0 z M 172,220 l 4,0 0,4 -4,0 z M 176,220 l 4,0 0,4 -4,0 z M 192,220 l 4,0 0,4 -4,0 z M 200,220 l 4,0 0,4 -4,0 z M 204,220 l 4,0 0,4 -4,0 z M 224,220 l 4,0 0,4 -4,0 z M 20,224 l 4,0 0,4 -4,0 z M 44,224 l 4,0 0,4 -4,0 z M 52,224 l 4,0 0,4 -4,0 z M 56,224 l 4,0 0,4 -4,0 z M 60,224 l 4,0 0,4 -4,0 z M 84,224 l 4,0 0,4 -4,0 z M 88,224 l 4,0 0,4 -4,0 z M 92,224 l 4,0 0,4 -4,0 z M 108,224 l 4,0 0,4 -4,0 z M 120,224 l 4,0 0,4 -4,0 z M 128,224 l 4,0 0,4 -4,0 z M 132,224 l 4,0 0,4 -4,0 z M 140,224 l 4,0 0,4 -4,0 z M 176,224 l 4,0 0,4 -4,0 z M 180,224 l 4,0 0,4 -4,0 z M 184,224 l 4,0 0,4 -4,0 z M 188,224 l 4,0 0,4 -4,0 z M 192,224 l 4,0 0,4 -4,0 z M 200,224 l 4,0 0,4 -4,0 z M 216,224 l 4,0 0,4 -4,0 z M 224,224 l 4,0 0,4 -4,0 z M 228,224 l 4,0 0,4 -4,0 z M 20,228 l 4,0 0,4 -4,0 z M 24,228 l 4,0 0,4 -4,0 z M 28,228 l 4,0 0,4 -4,0 z M 32,228 l 4,0 0,4 -4,0 z M 36,228 l 4,0 0,4 -4,0 z M 40,228 l 4,0 0,4 -4,0 z M 44,228 l 4,0 0,4 -4,0 z M 52,228 l 4,0 0,4 -4,0 z M 56,228 l 4,0 0,4 -4,0 z M 64,228 l 4,0 0,4 -4,0 z M 68,228 l 4,0 0,4 -4,0 z M 76,228 l 4,0 0,4 -4,0 z M 80,228 l 4,0 0,4 -4,0 z M 88,228 l 4,0 0,4 -4,0 z M 92,228 l 4,0 0,4 -4,0 z M 100,228 l 4,0 0,4 -4,0 z M 112,228 l 4,0 0,4 -4,0 z M 116,228 l 4,0 0,4 -4,0 z M 120,228 l 4,0 0,4 -4,0 z M 132,228 l 4,0 0,4 -4,0 z M 144,228 l 4,0 0,4 -4,0 z M 148,228 l 4,0 0,4 -4,0 z M 152,228 l 4,0 0,4 -4,0 z M 156,228 l 4,0 0,4 -4,0 z M 180,228 l 4,0 0,4 -4,0 z M 192,228 l 4,0 0,4 -4,0 z M 196,228 l 4,0 0,4 -4,0 z M 212,228 l 4,0 0,4 -4,0 z M 220,228 l 4,0 0,4 -4,0 z M 224,228 l 4,0 0,4 -4,0 z " />
	</g>
</svg>
